<mxfile host="app.diagrams.net" modified="2023-03-29T17:40:40.879Z" agent="Mozilla/5.0 (Windows NT 10.0; Win64; x64) AppleWebKit/537.36 (KHTML, like Gecko) Chrome/111.0.0.0 Safari/537.36" etag="4PPq8b2CsJuobA7ORgTz" version="21.1.1" type="device">
  <diagram id="C5RBs43oDa-KdzZeNtuy" name="Page-1">
    <mxGraphModel dx="1551" dy="483" grid="1" gridSize="10" guides="1" tooltips="1" connect="1" arrows="1" fold="1" page="1" pageScale="1" pageWidth="827" pageHeight="1169" math="0" shadow="0">
      <root>
        <mxCell id="WIyWlLk6GJQsqaUBKTNV-0" />
        <mxCell id="WIyWlLk6GJQsqaUBKTNV-1" parent="WIyWlLk6GJQsqaUBKTNV-0" />
        <mxCell id="WIyWlLk6GJQsqaUBKTNV-2" value="" style="rounded=0;html=1;jettySize=auto;orthogonalLoop=1;fontSize=11;endArrow=block;endFill=0;endSize=8;strokeWidth=1;shadow=0;labelBackgroundColor=none;edgeStyle=orthogonalEdgeStyle;fillColor=#b0e3e6;strokeColor=#0e8088;fontFamily=Verdana;" parent="WIyWlLk6GJQsqaUBKTNV-1" source="WIyWlLk6GJQsqaUBKTNV-3" target="WIyWlLk6GJQsqaUBKTNV-6" edge="1">
          <mxGeometry relative="1" as="geometry" />
        </mxCell>
        <mxCell id="WIyWlLk6GJQsqaUBKTNV-3" value="管理员登录后台管理系统界面" style="rounded=1;whiteSpace=wrap;html=1;fontSize=12;glass=0;strokeWidth=1;shadow=0;fillColor=#fad7ac;strokeColor=#b46504;fontFamily=Verdana;" parent="WIyWlLk6GJQsqaUBKTNV-1" vertex="1">
          <mxGeometry x="145" y="100" width="90" height="40" as="geometry" />
        </mxCell>
        <mxCell id="WIyWlLk6GJQsqaUBKTNV-4" value="正确" style="rounded=0;html=1;jettySize=auto;orthogonalLoop=1;fontSize=11;endArrow=block;endFill=0;endSize=8;strokeWidth=1;shadow=0;labelBackgroundColor=none;edgeStyle=orthogonalEdgeStyle;fillColor=#b0e3e6;strokeColor=#0e8088;fontFamily=Verdana;" parent="WIyWlLk6GJQsqaUBKTNV-1" source="WIyWlLk6GJQsqaUBKTNV-6" target="WIyWlLk6GJQsqaUBKTNV-10" edge="1">
          <mxGeometry y="20" relative="1" as="geometry">
            <mxPoint as="offset" />
          </mxGeometry>
        </mxCell>
        <mxCell id="WIyWlLk6GJQsqaUBKTNV-5" value="错误" style="edgeStyle=orthogonalEdgeStyle;rounded=0;html=1;jettySize=auto;orthogonalLoop=1;fontSize=11;endArrow=block;endFill=0;endSize=8;strokeWidth=1;shadow=0;labelBackgroundColor=none;fillColor=#b0e3e6;strokeColor=#0e8088;fontFamily=Verdana;" parent="WIyWlLk6GJQsqaUBKTNV-1" source="WIyWlLk6GJQsqaUBKTNV-6" target="WIyWlLk6GJQsqaUBKTNV-7" edge="1">
          <mxGeometry y="10" relative="1" as="geometry">
            <mxPoint as="offset" />
          </mxGeometry>
        </mxCell>
        <mxCell id="WIyWlLk6GJQsqaUBKTNV-6" value="比对账号、密码、验证码" style="rhombus;whiteSpace=wrap;html=1;shadow=0;fontFamily=Verdana;fontSize=12;align=center;strokeWidth=1;spacing=6;spacingTop=-4;fillColor=#b0e3e6;strokeColor=#0e8088;" parent="WIyWlLk6GJQsqaUBKTNV-1" vertex="1">
          <mxGeometry x="110" y="190" width="160" height="40" as="geometry" />
        </mxCell>
        <mxCell id="WIyWlLk6GJQsqaUBKTNV-7" value="提醒错误，再次登录" style="rounded=1;whiteSpace=wrap;html=1;fontSize=12;glass=0;strokeWidth=1;shadow=0;fillColor=#b0e3e6;strokeColor=#0e8088;fontFamily=Verdana;" parent="WIyWlLk6GJQsqaUBKTNV-1" vertex="1">
          <mxGeometry x="320" y="190" width="120" height="40" as="geometry" />
        </mxCell>
        <mxCell id="WIyWlLk6GJQsqaUBKTNV-8" value="上传文章" style="rounded=0;html=1;jettySize=auto;orthogonalLoop=1;fontSize=11;endArrow=block;endFill=0;endSize=8;strokeWidth=1;shadow=0;labelBackgroundColor=none;edgeStyle=orthogonalEdgeStyle;fillColor=#b0e3e6;strokeColor=#0e8088;fontFamily=Verdana;" parent="WIyWlLk6GJQsqaUBKTNV-1" source="WIyWlLk6GJQsqaUBKTNV-10" target="WIyWlLk6GJQsqaUBKTNV-11" edge="1">
          <mxGeometry x="0.3333" y="20" relative="1" as="geometry">
            <mxPoint as="offset" />
          </mxGeometry>
        </mxCell>
        <mxCell id="WIyWlLk6GJQsqaUBKTNV-9" value="写文章" style="edgeStyle=orthogonalEdgeStyle;rounded=0;html=1;jettySize=auto;orthogonalLoop=1;fontSize=11;endArrow=block;endFill=0;endSize=8;strokeWidth=1;shadow=0;labelBackgroundColor=none;fillColor=#b0e3e6;strokeColor=#0e8088;fontFamily=Verdana;" parent="WIyWlLk6GJQsqaUBKTNV-1" source="WIyWlLk6GJQsqaUBKTNV-10" target="WIyWlLk6GJQsqaUBKTNV-12" edge="1">
          <mxGeometry x="0.0049" y="10" relative="1" as="geometry">
            <mxPoint as="offset" />
          </mxGeometry>
        </mxCell>
        <mxCell id="WIyWlLk6GJQsqaUBKTNV-10" value="写文章/上传文章？" style="rhombus;whiteSpace=wrap;html=1;shadow=0;fontFamily=Verdana;fontSize=12;align=center;strokeWidth=1;spacing=6;spacingTop=-4;fillColor=#b0e3e6;strokeColor=#0e8088;" parent="WIyWlLk6GJQsqaUBKTNV-1" vertex="1">
          <mxGeometry x="110" y="300" width="160" height="60" as="geometry" />
        </mxCell>
        <mxCell id="-i1BYeCBY4YGaklGMa4l-4" style="edgeStyle=orthogonalEdgeStyle;rounded=0;orthogonalLoop=1;jettySize=auto;html=1;entryX=0;entryY=0.5;entryDx=0;entryDy=0;" edge="1" parent="WIyWlLk6GJQsqaUBKTNV-1" source="WIyWlLk6GJQsqaUBKTNV-11" target="-i1BYeCBY4YGaklGMa4l-3">
          <mxGeometry relative="1" as="geometry">
            <mxPoint x="2.2737367544323206e-13" y="340" as="sourcePoint" />
            <mxPoint x="145.00000000000023" y="460" as="targetPoint" />
            <Array as="points">
              <mxPoint x="-30" y="410" />
            </Array>
          </mxGeometry>
        </mxCell>
        <mxCell id="-i1BYeCBY4YGaklGMa4l-7" style="edgeStyle=orthogonalEdgeStyle;rounded=0;orthogonalLoop=1;jettySize=auto;html=1;entryX=1;entryY=0.5;entryDx=0;entryDy=0;" edge="1" parent="WIyWlLk6GJQsqaUBKTNV-1" source="WIyWlLk6GJQsqaUBKTNV-12" target="-i1BYeCBY4YGaklGMa4l-3">
          <mxGeometry relative="1" as="geometry">
            <Array as="points">
              <mxPoint x="380" y="410" />
            </Array>
          </mxGeometry>
        </mxCell>
        <mxCell id="WIyWlLk6GJQsqaUBKTNV-12" value="进入MD编辑器，编写博客" style="rounded=1;whiteSpace=wrap;html=1;fontSize=12;glass=0;strokeWidth=1;shadow=0;fillColor=#b0e3e6;strokeColor=#0e8088;fontFamily=Verdana;" parent="WIyWlLk6GJQsqaUBKTNV-1" vertex="1">
          <mxGeometry x="340" y="310" width="90" height="40" as="geometry" />
        </mxCell>
        <mxCell id="-i1BYeCBY4YGaklGMa4l-9" value="" style="edgeStyle=orthogonalEdgeStyle;rounded=0;orthogonalLoop=1;jettySize=auto;html=1;" edge="1" parent="WIyWlLk6GJQsqaUBKTNV-1" source="-i1BYeCBY4YGaklGMa4l-3" target="-i1BYeCBY4YGaklGMa4l-12">
          <mxGeometry relative="1" as="geometry">
            <mxPoint x="190.00000000000023" y="490" as="targetPoint" />
          </mxGeometry>
        </mxCell>
        <mxCell id="-i1BYeCBY4YGaklGMa4l-3" value="选择本地图片作为封面图，并设置文章专栏" style="rounded=1;whiteSpace=wrap;html=1;fontSize=12;glass=0;strokeWidth=1;shadow=0;fillColor=#b0e3e6;strokeColor=#0e8088;fontFamily=Verdana;" vertex="1" parent="WIyWlLk6GJQsqaUBKTNV-1">
          <mxGeometry x="140" y="380" width="100" height="60" as="geometry" />
        </mxCell>
        <mxCell id="-i1BYeCBY4YGaklGMa4l-15" value="" style="edgeStyle=orthogonalEdgeStyle;rounded=0;orthogonalLoop=1;jettySize=auto;html=1;" edge="1" parent="WIyWlLk6GJQsqaUBKTNV-1" source="-i1BYeCBY4YGaklGMa4l-12" target="-i1BYeCBY4YGaklGMa4l-14">
          <mxGeometry relative="1" as="geometry" />
        </mxCell>
        <mxCell id="-i1BYeCBY4YGaklGMa4l-17" value="存在" style="edgeLabel;html=1;align=center;verticalAlign=middle;resizable=0;points=[];" vertex="1" connectable="0" parent="-i1BYeCBY4YGaklGMa4l-15">
          <mxGeometry x="-0.2417" y="3" relative="1" as="geometry">
            <mxPoint as="offset" />
          </mxGeometry>
        </mxCell>
        <mxCell id="-i1BYeCBY4YGaklGMa4l-19" value="" style="edgeStyle=orthogonalEdgeStyle;rounded=0;orthogonalLoop=1;jettySize=auto;html=1;" edge="1" parent="WIyWlLk6GJQsqaUBKTNV-1" source="-i1BYeCBY4YGaklGMa4l-12" target="-i1BYeCBY4YGaklGMa4l-18">
          <mxGeometry relative="1" as="geometry" />
        </mxCell>
        <mxCell id="-i1BYeCBY4YGaklGMa4l-20" value="不存在" style="edgeLabel;html=1;align=center;verticalAlign=middle;resizable=0;points=[];" vertex="1" connectable="0" parent="-i1BYeCBY4YGaklGMa4l-19">
          <mxGeometry x="-0.2152" y="-2" relative="1" as="geometry">
            <mxPoint as="offset" />
          </mxGeometry>
        </mxCell>
        <mxCell id="-i1BYeCBY4YGaklGMa4l-12" value="专栏存在？" style="rhombus;whiteSpace=wrap;html=1;shadow=0;fontFamily=Verdana;fontSize=12;align=center;strokeWidth=1;spacing=6;spacingTop=-4;fillColor=#b0e3e6;strokeColor=#0e8088;" vertex="1" parent="WIyWlLk6GJQsqaUBKTNV-1">
          <mxGeometry x="110" y="470" width="160" height="60" as="geometry" />
        </mxCell>
        <mxCell id="-i1BYeCBY4YGaklGMa4l-30" style="edgeStyle=orthogonalEdgeStyle;rounded=0;orthogonalLoop=1;jettySize=auto;html=1;entryX=0;entryY=0.5;entryDx=0;entryDy=0;" edge="1" parent="WIyWlLk6GJQsqaUBKTNV-1" source="-i1BYeCBY4YGaklGMa4l-14" target="-i1BYeCBY4YGaklGMa4l-26">
          <mxGeometry relative="1" as="geometry">
            <Array as="points">
              <mxPoint x="-10" y="583" />
            </Array>
          </mxGeometry>
        </mxCell>
        <mxCell id="-i1BYeCBY4YGaklGMa4l-14" value="选择专栏" style="rounded=1;whiteSpace=wrap;html=1;fontSize=12;glass=0;strokeWidth=1;shadow=0;fillColor=#b0e3e6;strokeColor=#0e8088;fontFamily=Verdana;" vertex="1" parent="WIyWlLk6GJQsqaUBKTNV-1">
          <mxGeometry x="-60" y="480" width="90" height="40" as="geometry" />
        </mxCell>
        <mxCell id="WIyWlLk6GJQsqaUBKTNV-11" value="进入文章上传界面，选择本地MD文件上传" style="rounded=1;whiteSpace=wrap;html=1;fontSize=12;glass=0;strokeWidth=1;shadow=0;fillColor=#b0e3e6;strokeColor=#0e8088;fontFamily=Verdana;" parent="WIyWlLk6GJQsqaUBKTNV-1" vertex="1">
          <mxGeometry x="-90" y="310" width="120" height="40" as="geometry" />
        </mxCell>
        <mxCell id="-i1BYeCBY4YGaklGMa4l-22" value="" style="edgeStyle=orthogonalEdgeStyle;rounded=0;orthogonalLoop=1;jettySize=auto;html=1;" edge="1" parent="WIyWlLk6GJQsqaUBKTNV-1" source="-i1BYeCBY4YGaklGMa4l-18" target="-i1BYeCBY4YGaklGMa4l-21">
          <mxGeometry relative="1" as="geometry" />
        </mxCell>
        <mxCell id="-i1BYeCBY4YGaklGMa4l-18" value="创建专栏" style="rounded=1;whiteSpace=wrap;html=1;fontSize=12;glass=0;strokeWidth=1;shadow=0;fillColor=#b0e3e6;strokeColor=#0e8088;fontFamily=Verdana;" vertex="1" parent="WIyWlLk6GJQsqaUBKTNV-1">
          <mxGeometry x="340" y="480" width="90" height="40" as="geometry" />
        </mxCell>
        <mxCell id="-i1BYeCBY4YGaklGMa4l-24" value="" style="edgeStyle=orthogonalEdgeStyle;rounded=0;orthogonalLoop=1;jettySize=auto;html=1;" edge="1" parent="WIyWlLk6GJQsqaUBKTNV-1" source="-i1BYeCBY4YGaklGMa4l-21" target="-i1BYeCBY4YGaklGMa4l-23">
          <mxGeometry relative="1" as="geometry" />
        </mxCell>
        <mxCell id="-i1BYeCBY4YGaklGMa4l-21" value="输入专栏名称、专栏描述" style="rounded=1;whiteSpace=wrap;html=1;fontSize=12;glass=0;strokeWidth=1;shadow=0;fillColor=#b0e3e6;strokeColor=#0e8088;fontFamily=Verdana;" vertex="1" parent="WIyWlLk6GJQsqaUBKTNV-1">
          <mxGeometry x="490" y="480" width="150" height="40" as="geometry" />
        </mxCell>
        <mxCell id="-i1BYeCBY4YGaklGMa4l-28" value="" style="edgeStyle=orthogonalEdgeStyle;rounded=0;orthogonalLoop=1;jettySize=auto;html=1;" edge="1" parent="WIyWlLk6GJQsqaUBKTNV-1" source="-i1BYeCBY4YGaklGMa4l-23" target="-i1BYeCBY4YGaklGMa4l-27">
          <mxGeometry relative="1" as="geometry" />
        </mxCell>
        <mxCell id="-i1BYeCBY4YGaklGMa4l-23" value="选择本地图片作为专栏图片，选择所属父专栏，完成专栏创建" style="whiteSpace=wrap;html=1;fontFamily=Verdana;fillColor=#b0e3e6;strokeColor=#0e8088;rounded=1;glass=0;strokeWidth=1;shadow=0;" vertex="1" parent="WIyWlLk6GJQsqaUBKTNV-1">
          <mxGeometry x="497.5" y="555" width="135" height="55" as="geometry" />
        </mxCell>
        <mxCell id="-i1BYeCBY4YGaklGMa4l-47" value="" style="edgeStyle=orthogonalEdgeStyle;rounded=0;orthogonalLoop=1;jettySize=auto;html=1;" edge="1" parent="WIyWlLk6GJQsqaUBKTNV-1" source="-i1BYeCBY4YGaklGMa4l-26" target="-i1BYeCBY4YGaklGMa4l-35">
          <mxGeometry relative="1" as="geometry" />
        </mxCell>
        <mxCell id="-i1BYeCBY4YGaklGMa4l-26" value="选择文章标签，可多选" style="rounded=1;whiteSpace=wrap;html=1;fontSize=12;glass=0;strokeWidth=1;shadow=0;fillColor=#b0e3e6;strokeColor=#0e8088;fontFamily=Verdana;" vertex="1" parent="WIyWlLk6GJQsqaUBKTNV-1">
          <mxGeometry x="145" y="552.5" width="100" height="60" as="geometry" />
        </mxCell>
        <mxCell id="-i1BYeCBY4YGaklGMa4l-29" style="edgeStyle=orthogonalEdgeStyle;rounded=0;orthogonalLoop=1;jettySize=auto;html=1;" edge="1" parent="WIyWlLk6GJQsqaUBKTNV-1" source="-i1BYeCBY4YGaklGMa4l-27" target="-i1BYeCBY4YGaklGMa4l-26">
          <mxGeometry relative="1" as="geometry" />
        </mxCell>
        <mxCell id="-i1BYeCBY4YGaklGMa4l-27" value="选择新建专栏" style="whiteSpace=wrap;html=1;fontFamily=Verdana;fillColor=#b0e3e6;strokeColor=#0e8088;rounded=1;glass=0;strokeWidth=1;shadow=0;" vertex="1" parent="WIyWlLk6GJQsqaUBKTNV-1">
          <mxGeometry x="340" y="567.5" width="100" height="30" as="geometry" />
        </mxCell>
        <mxCell id="-i1BYeCBY4YGaklGMa4l-31" value="" style="edgeStyle=orthogonalEdgeStyle;rounded=0;orthogonalLoop=1;jettySize=auto;html=1;" edge="1" parent="WIyWlLk6GJQsqaUBKTNV-1" source="-i1BYeCBY4YGaklGMa4l-35" target="-i1BYeCBY4YGaklGMa4l-37">
          <mxGeometry relative="1" as="geometry" />
        </mxCell>
        <mxCell id="-i1BYeCBY4YGaklGMa4l-32" value="存在" style="edgeLabel;html=1;align=center;verticalAlign=middle;resizable=0;points=[];" vertex="1" connectable="0" parent="-i1BYeCBY4YGaklGMa4l-31">
          <mxGeometry x="-0.2417" y="3" relative="1" as="geometry">
            <mxPoint as="offset" />
          </mxGeometry>
        </mxCell>
        <mxCell id="-i1BYeCBY4YGaklGMa4l-33" value="" style="edgeStyle=orthogonalEdgeStyle;rounded=0;orthogonalLoop=1;jettySize=auto;html=1;" edge="1" parent="WIyWlLk6GJQsqaUBKTNV-1" source="-i1BYeCBY4YGaklGMa4l-35" target="-i1BYeCBY4YGaklGMa4l-39">
          <mxGeometry relative="1" as="geometry" />
        </mxCell>
        <mxCell id="-i1BYeCBY4YGaklGMa4l-34" value="不存在" style="edgeLabel;html=1;align=center;verticalAlign=middle;resizable=0;points=[];" vertex="1" connectable="0" parent="-i1BYeCBY4YGaklGMa4l-33">
          <mxGeometry x="-0.2152" y="-2" relative="1" as="geometry">
            <mxPoint as="offset" />
          </mxGeometry>
        </mxCell>
        <mxCell id="-i1BYeCBY4YGaklGMa4l-35" value="标签存在？" style="rhombus;whiteSpace=wrap;html=1;shadow=0;fontFamily=Verdana;fontSize=12;align=center;strokeWidth=1;spacing=6;spacingTop=-4;fillColor=#b0e3e6;strokeColor=#0e8088;" vertex="1" parent="WIyWlLk6GJQsqaUBKTNV-1">
          <mxGeometry x="115" y="650" width="160" height="60" as="geometry" />
        </mxCell>
        <mxCell id="-i1BYeCBY4YGaklGMa4l-62" value="" style="edgeStyle=orthogonalEdgeStyle;rounded=0;orthogonalLoop=1;jettySize=auto;html=1;" edge="1" parent="WIyWlLk6GJQsqaUBKTNV-1" source="-i1BYeCBY4YGaklGMa4l-37" target="-i1BYeCBY4YGaklGMa4l-44">
          <mxGeometry relative="1" as="geometry" />
        </mxCell>
        <mxCell id="-i1BYeCBY4YGaklGMa4l-37" value="选择标签" style="rounded=1;whiteSpace=wrap;html=1;fontSize=12;glass=0;strokeWidth=1;shadow=0;fillColor=#b0e3e6;strokeColor=#0e8088;fontFamily=Verdana;" vertex="1" parent="WIyWlLk6GJQsqaUBKTNV-1">
          <mxGeometry x="150" y="810" width="90" height="40" as="geometry" />
        </mxCell>
        <mxCell id="-i1BYeCBY4YGaklGMa4l-38" value="" style="edgeStyle=orthogonalEdgeStyle;rounded=0;orthogonalLoop=1;jettySize=auto;html=1;" edge="1" parent="WIyWlLk6GJQsqaUBKTNV-1" source="-i1BYeCBY4YGaklGMa4l-39" target="-i1BYeCBY4YGaklGMa4l-41">
          <mxGeometry relative="1" as="geometry" />
        </mxCell>
        <mxCell id="-i1BYeCBY4YGaklGMa4l-39" value="创建标签" style="rounded=1;whiteSpace=wrap;html=1;fontSize=12;glass=0;strokeWidth=1;shadow=0;fillColor=#b0e3e6;strokeColor=#0e8088;fontFamily=Verdana;" vertex="1" parent="WIyWlLk6GJQsqaUBKTNV-1">
          <mxGeometry x="345" y="660" width="90" height="40" as="geometry" />
        </mxCell>
        <mxCell id="-i1BYeCBY4YGaklGMa4l-54" value="" style="edgeStyle=orthogonalEdgeStyle;rounded=0;orthogonalLoop=1;jettySize=auto;html=1;" edge="1" parent="WIyWlLk6GJQsqaUBKTNV-1" source="-i1BYeCBY4YGaklGMa4l-41" target="-i1BYeCBY4YGaklGMa4l-48">
          <mxGeometry relative="1" as="geometry" />
        </mxCell>
        <mxCell id="-i1BYeCBY4YGaklGMa4l-41" value="输入标签名，上传标签图片，完成创建" style="rounded=1;whiteSpace=wrap;html=1;fontSize=12;glass=0;strokeWidth=1;shadow=0;fillColor=#b0e3e6;strokeColor=#0e8088;fontFamily=Verdana;" vertex="1" parent="WIyWlLk6GJQsqaUBKTNV-1">
          <mxGeometry x="495" y="660" width="150" height="40" as="geometry" />
        </mxCell>
        <mxCell id="-i1BYeCBY4YGaklGMa4l-63" style="edgeStyle=orthogonalEdgeStyle;rounded=0;orthogonalLoop=1;jettySize=auto;html=1;entryX=0;entryY=0.5;entryDx=0;entryDy=0;" edge="1" parent="WIyWlLk6GJQsqaUBKTNV-1" source="-i1BYeCBY4YGaklGMa4l-44" target="-i1BYeCBY4YGaklGMa4l-46">
          <mxGeometry relative="1" as="geometry">
            <Array as="points">
              <mxPoint y="935" />
            </Array>
          </mxGeometry>
        </mxCell>
        <mxCell id="-i1BYeCBY4YGaklGMa4l-44" value="编写文章摘要，或自动生成摘要" style="rounded=1;whiteSpace=wrap;html=1;fontSize=12;glass=0;strokeWidth=1;shadow=0;fillColor=#b0e3e6;strokeColor=#0e8088;fontFamily=Verdana;" vertex="1" parent="WIyWlLk6GJQsqaUBKTNV-1">
          <mxGeometry x="-60" y="810" width="110" height="40" as="geometry" />
        </mxCell>
        <mxCell id="-i1BYeCBY4YGaklGMa4l-46" value="发布文章" style="whiteSpace=wrap;html=1;fontFamily=Verdana;fillColor=#fad7ac;strokeColor=#b46504;rounded=1;glass=0;strokeWidth=1;shadow=0;" vertex="1" parent="WIyWlLk6GJQsqaUBKTNV-1">
          <mxGeometry x="135" y="910" width="120" height="50" as="geometry" />
        </mxCell>
        <mxCell id="-i1BYeCBY4YGaklGMa4l-55" value="" style="edgeStyle=orthogonalEdgeStyle;rounded=0;orthogonalLoop=1;jettySize=auto;html=1;" edge="1" parent="WIyWlLk6GJQsqaUBKTNV-1" source="-i1BYeCBY4YGaklGMa4l-48">
          <mxGeometry relative="1" as="geometry">
            <mxPoint x="460" y="680" as="targetPoint" />
          </mxGeometry>
        </mxCell>
        <mxCell id="-i1BYeCBY4YGaklGMa4l-57" value="是，保存并继续创建标签" style="edgeLabel;html=1;align=center;verticalAlign=middle;resizable=0;points=[];" vertex="1" connectable="0" parent="-i1BYeCBY4YGaklGMa4l-55">
          <mxGeometry x="-0.2364" y="2" relative="1" as="geometry">
            <mxPoint y="-24" as="offset" />
          </mxGeometry>
        </mxCell>
        <mxCell id="-i1BYeCBY4YGaklGMa4l-60" style="edgeStyle=orthogonalEdgeStyle;rounded=0;orthogonalLoop=1;jettySize=auto;html=1;entryX=1;entryY=0.5;entryDx=0;entryDy=0;" edge="1" parent="WIyWlLk6GJQsqaUBKTNV-1" source="-i1BYeCBY4YGaklGMa4l-48" target="-i1BYeCBY4YGaklGMa4l-37">
          <mxGeometry relative="1" as="geometry">
            <Array as="points">
              <mxPoint x="570" y="830" />
            </Array>
          </mxGeometry>
        </mxCell>
        <mxCell id="-i1BYeCBY4YGaklGMa4l-61" value="否" style="edgeLabel;html=1;align=center;verticalAlign=middle;resizable=0;points=[];" vertex="1" connectable="0" parent="-i1BYeCBY4YGaklGMa4l-60">
          <mxGeometry x="-0.128" y="2" relative="1" as="geometry">
            <mxPoint as="offset" />
          </mxGeometry>
        </mxCell>
        <mxCell id="-i1BYeCBY4YGaklGMa4l-48" value="是否需要新标签" style="rhombus;whiteSpace=wrap;html=1;shadow=0;fontFamily=Verdana;fontSize=12;align=center;strokeWidth=1;spacing=6;spacingTop=-4;fillColor=#b0e3e6;strokeColor=#0e8088;" vertex="1" parent="WIyWlLk6GJQsqaUBKTNV-1">
          <mxGeometry x="490" y="750" width="160" height="60" as="geometry" />
        </mxCell>
      </root>
    </mxGraphModel>
  </diagram>
</mxfile>
